
<svg version="1.1" id="Layer_1" xmlns="http://www.w3.org/2000/svg" xmlns:xlink="http://www.w3.org/1999/xlink" x="0px" y="0px"
	 width="400px" height="70px" viewBox="0 0 400 70" enable-background="new 0 0 400 70" xml:space="preserve">
<g>
	<g>
		<g>
			<path fill="#F2F2F2" d="M85.279,36.785c0-2.463,0.446-4.896,1.337-7.301c0.888-2.406,2.186-4.556,3.892-6.45
				c1.703-1.894,3.787-3.428,6.249-4.603c2.462-1.173,5.265-1.76,8.408-1.76c3.712,0,6.923,0.814,9.631,2.442
				c2.708,1.629,4.725,3.75,6.051,6.363l-6.022,4.148c-0.531-1.136-1.174-2.092-1.932-2.869c-0.759-0.777-1.572-1.391-2.442-1.846
				c-0.874-0.454-1.781-0.786-2.729-0.995c-0.946-0.207-1.875-0.313-2.783-0.313c-1.971,0-3.685,0.398-5.143,1.194
				c-1.457,0.794-2.669,1.828-3.636,3.096c-0.966,1.27-1.695,2.709-2.187,4.318c-0.493,1.61-0.74,3.211-0.74,4.8
				c0,1.78,0.285,3.496,0.854,5.143c0.567,1.647,1.372,3.097,2.414,4.344c1.041,1.252,2.291,2.257,3.751,3.012
				c1.457,0.762,3.057,1.139,4.8,1.139c0.91,0,1.854-0.113,2.84-0.341c0.985-0.229,1.923-0.587,2.813-1.08
				c0.889-0.49,1.714-1.126,2.471-1.905c0.758-0.774,1.364-1.71,1.818-2.812l6.421,3.693c-0.646,1.517-1.563,2.851-2.756,4.007
				c-1.193,1.155-2.538,2.13-4.034,2.926c-1.496,0.795-3.096,1.399-4.801,1.817c-1.705,0.417-3.372,0.625-4.999,0.625
				c-2.88,0-5.512-0.607-7.898-1.819c-2.386-1.212-4.44-2.792-6.164-4.742c-1.723-1.951-3.068-4.168-4.034-6.646
				C85.764,41.886,85.279,39.36,85.279,36.785z"/>
			<path fill="#F2F2F2" d="M139.709,57.807c-2.425,0-4.604-0.417-6.534-1.251c-1.932-0.834-3.571-1.96-4.914-3.381
				c-1.346-1.42-2.378-3.059-3.097-4.915c-0.721-1.854-1.08-3.807-1.08-5.852c0-2.082,0.359-4.053,1.08-5.908
				c0.719-1.855,1.751-3.495,3.097-4.915c1.343-1.42,2.982-2.546,4.914-3.381c1.931-0.832,4.109-1.249,6.534-1.249
				c2.423,0,4.591,0.417,6.504,1.249c1.913,0.834,3.542,1.961,4.886,3.381c1.346,1.42,2.378,3.06,3.099,4.915
				c0.718,1.855,1.079,3.826,1.079,5.908c0,2.045-0.361,3.997-1.079,5.852c-0.721,1.856-1.744,3.495-3.069,4.915
				c-1.327,1.421-2.955,2.547-4.886,3.381C144.311,57.39,142.132,57.807,139.709,57.807z M131.925,42.408
				c0,1.327,0.198,2.527,0.597,3.608c0.397,1.08,0.945,2.019,1.647,2.813c0.7,0.793,1.524,1.409,2.472,1.846
				c0.944,0.435,1.968,0.653,3.068,0.653c1.098,0,2.12-0.219,3.067-0.653c0.946-0.437,1.77-1.053,2.471-1.846
				c0.7-0.795,1.25-1.744,1.648-2.843c0.397-1.098,0.596-2.31,0.596-3.635c0-1.289-0.198-2.481-0.596-3.58
				c-0.398-1.099-0.948-2.047-1.648-2.841c-0.701-0.795-1.524-1.411-2.471-1.847c-0.947-0.434-1.97-0.653-3.067-0.653
				c-1.101,0-2.124,0.227-3.068,0.682c-0.947,0.454-1.771,1.08-2.472,1.874c-0.702,0.798-1.25,1.744-1.647,2.842
				C132.123,39.928,131.925,41.122,131.925,42.408z"/>
			<path fill="#F2F2F2" d="M188.057,57.236h-7.612V40.535c0-2.387-0.418-4.13-1.251-5.228s-1.989-1.648-3.465-1.648
				c-0.759,0-1.535,0.152-2.329,0.455c-0.796,0.303-1.544,0.729-2.244,1.279c-0.701,0.549-1.336,1.203-1.905,1.958
				c-0.566,0.761-0.984,1.593-1.25,2.501v17.385h-7.613V27.466h6.876v5.511c1.098-1.894,2.689-3.37,4.773-4.431
				c2.082-1.061,4.432-1.591,7.043-1.591c1.857,0,3.372,0.34,4.546,1.022c1.174,0.683,2.082,1.574,2.728,2.67
				c0.644,1.099,1.089,2.349,1.335,3.75c0.246,1.4,0.369,2.823,0.369,4.262V57.236z"/>
			<path fill="#F2F2F2" d="M202.032,57.236l-10.966-29.771h7.842l7.557,23.58l7.613-23.58h7.157l-10.963,29.771H202.032z"/>
			<path fill="#F2F2F2" d="M237.996,57.807c-2.386,0-4.543-0.409-6.475-1.221c-1.932-0.814-3.58-1.924-4.944-3.327
				c-1.364-1.399-2.415-3.029-3.154-4.885c-0.739-1.854-1.108-3.808-1.108-5.851c0-2.122,0.359-4.12,1.083-5.996
				c0.717-1.875,1.76-3.522,3.123-4.942c1.366-1.42,3.021-2.546,4.971-3.381c1.951-0.832,4.139-1.249,6.563-1.249
				c2.423,0,4.591,0.417,6.504,1.249c1.913,0.834,3.542,1.952,4.889,3.354c1.341,1.4,2.364,3.03,3.066,4.885
				c0.7,1.856,1.051,3.788,1.051,5.795c0,0.493-0.01,0.966-0.028,1.421c-0.018,0.453-0.065,0.834-0.142,1.137h-23.01
				c0.111,1.175,0.398,2.215,0.852,3.126c0.455,0.909,1.041,1.685,1.761,2.326c0.72,0.646,1.536,1.139,2.442,1.479
				c0.91,0.34,1.858,0.513,2.844,0.513c1.514,0,2.943-0.37,4.289-1.107c1.343-0.739,2.26-1.716,2.754-2.929l6.533,1.821
				c-1.098,2.27-2.85,4.135-5.254,5.595C244.198,57.075,241.331,57.807,237.996,57.807z M245.722,39.852
				c-0.188-2.233-1.012-4.023-2.47-5.369c-1.456-1.344-3.229-2.018-5.311-2.018c-1.022,0-1.981,0.18-2.869,0.54
				c-0.891,0.36-1.678,0.862-2.358,1.505c-0.682,0.646-1.242,1.421-1.676,2.33c-0.437,0.908-0.691,1.913-0.768,3.011H245.722z"/>
			<path fill="#F2F2F2" d="M275.95,34.056c-2.312,0.039-4.374,0.483-6.194,1.336c-1.818,0.853-3.124,2.132-3.92,3.834v18.01h-7.614
				V27.466h6.989v6.363c0.531-1.022,1.157-1.94,1.876-2.755c0.719-0.815,1.494-1.523,2.329-2.131
				c0.835-0.604,1.677-1.07,2.528-1.391c0.852-0.322,1.676-0.484,2.473-0.484c0.414,0,0.728,0,0.937,0
				c0.207,0,0.404,0.02,0.597,0.057V34.056z"/>
			<path fill="#F2F2F2" d="M298.051,55.704c-1.023,0.455-2.271,0.908-3.749,1.363c-1.479,0.456-3.034,0.68-4.658,0.68
				c-1.063,0-2.058-0.133-2.984-0.396c-0.931-0.267-1.742-0.688-2.442-1.278c-0.703-0.588-1.262-1.346-1.678-2.274
				c-0.417-0.929-0.624-2.052-0.624-3.38v-17.1h-3.921v-5.853h3.921v-9.658h7.613v9.658h6.251v5.853h-6.251v14.542
				c0,1.062,0.274,1.812,0.824,2.246c0.548,0.436,1.221,0.652,2.016,0.652c0.796,0,1.573-0.132,2.329-0.397
				c0.756-0.263,1.365-0.491,1.816-0.679L298.051,55.704z"/>
			<path fill="#F2F2F2" d="M315.516,57.236V16.898h17.102c1.854,0,3.569,0.389,5.142,1.165c1.57,0.777,2.926,1.8,4.062,3.068
				c1.135,1.27,2.024,2.709,2.672,4.318c0.643,1.61,0.964,3.229,0.964,4.857c0,1.704-0.303,3.363-0.909,4.972
				c-0.606,1.61-1.458,3.04-2.557,4.289c-1.1,1.251-2.424,2.256-3.976,3.011c-1.556,0.758-3.26,1.138-5.113,1.138h-9.545v13.521
				H315.516z M323.356,36.841h9.089c1.439,0,2.643-0.588,3.609-1.762c0.965-1.173,1.448-2.762,1.448-4.772
				c0-1.022-0.152-1.941-0.456-2.754c-0.303-0.815-0.702-1.506-1.194-2.075c-0.489-0.567-1.069-0.993-1.731-1.278
				s-1.335-0.427-2.019-0.427h-8.746V36.841z"/>
			<path fill="#F2F2F2" d="M367.899,34.056c-2.312,0.039-4.376,0.483-6.196,1.336c-1.815,0.853-3.124,2.132-3.918,3.834v18.01
				h-7.614V27.466h6.989v6.363c0.527-1.022,1.154-1.94,1.874-2.755c0.72-0.815,1.495-1.523,2.331-2.131
				c0.832-0.604,1.675-1.07,2.526-1.391c0.854-0.322,1.677-0.484,2.471-0.484c0.418,0,0.731,0,0.939,0s0.406,0.02,0.598,0.057
				V34.056z"/>
			<path fill="#F2F2F2" d="M384.432,57.807c-2.423,0-4.603-0.417-6.533-1.251c-1.934-0.834-3.571-1.96-4.916-3.381
				c-1.343-1.42-2.378-3.059-3.096-4.915c-0.721-1.854-1.08-3.807-1.08-5.852c0-2.082,0.359-4.053,1.08-5.908
				c0.718-1.855,1.753-3.495,3.096-4.915c1.345-1.42,2.982-2.546,4.916-3.381c1.931-0.832,4.11-1.249,6.533-1.249
				c2.424,0,4.594,0.417,6.507,1.249c1.909,0.834,3.539,1.961,4.884,3.381c1.344,1.42,2.376,3.06,3.097,4.915
				c0.72,1.855,1.081,3.826,1.081,5.908c0,2.045-0.361,3.997-1.081,5.852c-0.721,1.856-1.742,3.495-3.068,4.915
				c-1.326,1.421-2.953,2.547-4.888,3.381C389.033,57.39,386.855,57.807,384.432,57.807z M376.647,42.408
				c0,1.327,0.2,2.527,0.596,3.608c0.398,1.08,0.945,2.019,1.647,2.813c0.702,0.793,1.525,1.409,2.472,1.846
				c0.947,0.435,1.971,0.653,3.069,0.653c1.098,0,2.12-0.219,3.068-0.653c0.946-0.437,1.769-1.053,2.471-1.846
				c0.702-0.795,1.251-1.744,1.646-2.843c0.399-1.098,0.598-2.31,0.598-3.635c0-1.289-0.198-2.481-0.598-3.58
				c-0.396-1.099-0.944-2.047-1.646-2.841c-0.702-0.795-1.524-1.411-2.471-1.847c-0.948-0.434-1.971-0.653-3.068-0.653
				c-1.099,0-2.122,0.227-3.069,0.682c-0.946,0.454-1.77,1.08-2.472,1.874c-0.702,0.798-1.249,1.744-1.647,2.842
				C376.848,39.928,376.647,41.122,376.647,42.408z"/>
		</g>
	</g>
	<g>
		<path fill="none" d="M41.852,14.342c-3.354,4.316-6.037,9.069-8.571,13.898c-1.109,2.115-2.218,4.229-3.151,6.427
			c0.664-1.563,1.931-3.073,2.905-4.449c3.182-4.493,6.58-8.826,9.998-13.141c3.956-4.987,10.196-12.925,9.447-12.424
			C48.285,7.451,44.915,10.396,41.852,14.342z"/>
		<path fill="#F2F2F2" d="M34.684,18.629c-0.682,1.087-1.771,3.654-2.964,6.724l-6.293,0.643l-10.984,16.15l9.485-6.693l1.827,1.121
			c-2.212,3.146-2.24,5.059-2.24,5.059l6.268,4.473c0,0,2.36-0.939,4.599-3.623l1.762,1.275l-2.739,11.278l10.979-16.148
			l-1.664-6.039c2.598-2.38,4.803-4.52,5.769-5.742c3.169-4,4.099-8.787,6.785-15.867c0.001,0,0.001,0,0.002,0
			c0.973-3.32,1.438-6.782,0.832-9.968c-3.188,0.607-6.236,2.311-8.97,4.434c0.002,0.002,0.004,0.002,0.005,0.004
			C41.398,10.587,36.785,15.276,34.684,18.629z M43.032,17.077c-3.418,4.314-6.816,8.648-9.998,13.141
			c-0.975,1.376-2.241,2.887-2.905,4.449c0.934-2.198,2.042-4.312,3.151-6.427c2.534-4.829,5.217-9.582,8.571-13.898
			c3.063-3.946,6.434-6.891,10.628-9.689C53.229,4.152,46.988,12.089,43.032,17.077z"/>
		<path fill="#F2F2F2" d="M23.284,42.127C23.262,42.173,9.677,66.521,9.556,66.85c-0.165,0.445,0.45,0.847,0.836,0.524
			c0.317-0.261,18.469-20.179,19.059-20.835L23.284,42.127z M13.242,62.321c0.033-0.058,0.063-0.112,0.096-0.172
			c0.013,0.008,0.024,0.016,0.037,0.026C13.331,62.227,13.287,62.273,13.242,62.321z"/>
		<path fill="#F2F2F2" d="M12.467,55.054c-4.803-5.096-7.75-11.955-7.75-19.494c0-15.687,12.763-28.449,28.451-28.449
			c3.101,0,4.506,0.04,7.304,0.962c1.223-1.154,2.524-2.5,3.883-3.741c-3.93-1.639-6.663-1.938-11.187-1.938
			C14.849,2.394,0,17.243,0,35.56c0,9.18,3.732,17.483,9.759,23.486c0.016,0.015,0.038,0.015,0.057,0.022l2.705-3.857
			C12.516,55.145,12.5,55.089,12.467,55.054z"/>
		<path fill="#F2F2F2" d="M57.403,12.995c-0.677,1.809-1.4,3.36-1.923,4.892c4.427,5.018,6.138,10.474,6.138,17.673
			c0,15.69-12.764,28.451-28.45,28.451c-5.374,0-8.733-0.405-13.024-3.001c-1.162,1.268-2.287,2.173-3.261,3.234
			c5.173,3.332,9.676,4.483,16.285,4.483c18.316,0,33.165-14.852,33.165-33.168C66.333,26.226,63.612,19.023,57.403,12.995z"/>
		<path fill="#F2F2F2" d="M13.242,62.321c0.045-0.048,0.089-0.095,0.133-0.146c-0.013-0.011-0.024-0.019-0.037-0.026
			C13.305,62.209,13.275,62.264,13.242,62.321z"/>
	</g>
</g>
</svg>
