<svg width="225" height="58.5" viewBox="0 0 710 184" fill="none" xmlns="http://www.w3.org/2000/svg">
<path d="M249.567 54.9264C257.844 54.9264 264.742 56.9635 270.26 61.0376C275.778 65.1117 279.424 70.6643 281.198 77.6954H269.373C267.862 73.9499 265.366 70.96 261.884 68.7258C258.469 66.4916 254.396 65.3746 249.666 65.3746C245.33 65.3746 241.422 66.3931 237.94 68.4301C234.524 70.4672 231.831 73.3585 229.86 77.104C227.955 80.8496 227.002 85.2522 227.002 90.312C227.002 95.6346 227.988 100.202 229.959 104.013C231.929 107.824 234.688 110.748 238.236 112.785C241.849 114.757 246.02 115.742 250.75 115.742C256.531 115.742 261.49 113.968 265.629 110.42C269.767 106.806 272.264 101.877 273.118 95.6346H247.597V87.355H282.577V98.0988C281.789 103.224 279.95 107.89 277.059 112.095C274.234 116.235 270.457 119.554 265.727 122.051C261.063 124.548 255.709 125.796 249.666 125.796C242.9 125.796 236.922 124.285 231.732 121.262C226.543 118.239 222.535 114.067 219.711 108.744C216.886 103.356 215.474 97.2117 215.474 90.312C215.474 83.4123 216.886 77.3012 219.711 71.9785C222.535 66.5902 226.51 62.4175 231.634 59.4605C236.823 56.4378 242.801 54.9264 249.567 54.9264Z" fill="#1A1A1A"/>
<path d="M309.664 81.441C311.503 77.8926 314.131 75.0998 317.547 73.0628C320.963 70.96 324.904 69.9086 329.371 69.9086V82.1309H326.021C321.094 82.1309 317.12 83.3466 314.098 85.7779C311.142 88.1435 309.664 92.0862 309.664 97.606V125.106H298.431V70.7957H309.664V81.441Z" fill="#1A1A1A"/>
<path d="M364.043 70.1058C368.97 70.1058 373.175 71.3214 376.656 73.7527C380.138 76.1841 382.601 79.4039 384.046 83.4123V70.7957H395.28V125.106H384.046V112.49C382.601 116.498 380.138 119.718 376.656 122.149C373.175 124.58 368.97 125.796 364.043 125.796C359.314 125.796 355.077 124.679 351.332 122.445C347.654 120.211 344.763 116.991 342.661 112.785C340.559 108.58 339.508 103.619 339.508 97.9017C339.508 92.2505 340.559 87.3221 342.661 83.1166C344.763 78.9111 347.654 75.6912 351.332 73.457C355.077 71.2229 359.314 70.1058 364.043 70.1058ZM367.492 79.9625C362.5 79.9625 358.493 81.5724 355.471 84.7923C352.515 87.9464 351.037 92.3162 351.037 97.9017C351.037 103.487 352.515 107.89 355.471 111.11C358.493 114.264 362.5 115.841 367.492 115.841C370.645 115.841 373.47 115.118 375.966 113.672C378.463 112.161 380.433 110.058 381.879 107.364C383.324 104.67 384.046 101.516 384.046 97.9017C384.046 94.3532 383.324 91.232 381.879 88.5378C380.433 85.7779 378.463 83.6752 375.966 82.2295C373.47 80.7181 370.645 79.9625 367.492 79.9625Z" fill="#1A1A1A"/>
<path d="M435.015 70.1058C439.942 70.1058 444.147 71.3214 447.628 73.7527C451.11 76.1841 453.54 79.4039 454.92 83.4123V52.1666H466.252V125.106H454.92V112.49C453.54 116.498 451.11 119.718 447.628 122.149C444.147 124.58 439.942 125.796 435.015 125.796C430.286 125.796 426.049 124.679 422.304 122.445C418.626 120.211 415.735 116.991 413.633 112.785C411.531 108.58 410.48 103.619 410.48 97.9017C410.48 92.2505 411.531 87.3221 413.633 83.1166C415.735 78.9111 418.626 75.6912 422.304 73.457C426.049 71.2229 430.286 70.1058 435.015 70.1058ZM438.464 79.9625C433.472 79.9625 429.465 81.5724 426.443 84.7923C423.487 87.9464 422.009 92.3162 422.009 97.9017C422.009 103.487 423.487 107.89 426.443 111.11C429.465 114.264 433.472 115.841 438.464 115.841C441.617 115.841 444.442 115.118 446.938 113.672C449.435 112.161 451.405 110.058 452.851 107.364C454.296 104.67 455.018 101.516 455.018 97.9017C455.018 94.3532 454.296 91.232 452.851 88.5378C451.405 85.7779 449.435 83.6752 446.938 82.2295C444.442 80.7181 441.617 79.9625 438.464 79.9625Z" fill="#1A1A1A"/>
<path d="M482.634 55.025C482.634 53.1194 483.291 51.5423 484.605 50.2938C485.919 49.0453 487.66 48.421 489.827 48.421C491.995 48.421 493.736 49.0453 495.05 50.2938C496.429 51.5423 497.119 53.1194 497.119 55.025C497.119 56.9306 496.429 58.4749 495.05 59.6577C493.736 60.8405 491.995 61.4319 489.827 61.4319C487.66 61.4319 485.919 60.8405 484.605 59.6577C483.291 58.4749 482.634 56.9306 482.634 55.025ZM495.444 70.7957V125.106H484.211V70.7957H495.444Z" fill="#1A1A1A"/>
<path d="M538.348 70.1058C543.603 70.1058 548.333 71.2229 552.537 73.457C556.741 75.6912 560.026 78.9111 562.391 83.1166C564.756 87.3221 565.938 92.2505 565.938 97.9017C565.938 103.619 564.756 108.58 562.391 112.785C560.026 116.991 556.741 120.211 552.537 122.445C548.333 124.679 543.603 125.796 538.348 125.796C533.092 125.796 528.363 124.679 524.158 122.445C520.02 120.211 516.735 116.991 514.305 112.785C511.94 108.514 510.757 103.553 510.757 97.9017C510.757 92.2505 511.94 87.3221 514.305 83.1166C516.735 78.9111 520.02 75.6912 524.158 73.457C528.363 71.2229 533.092 70.1058 538.348 70.1058ZM538.348 79.8639C535.457 79.8639 532.797 80.521 530.366 81.8352C527.936 83.1495 525.965 85.1865 524.454 87.9464C523.009 90.6406 522.286 93.959 522.286 97.9017C522.286 101.91 523.009 105.261 524.454 107.955C525.965 110.65 527.936 112.654 530.366 113.968C532.797 115.282 535.457 115.939 538.348 115.939C541.238 115.939 543.899 115.282 546.329 113.968C548.76 112.654 550.698 110.65 552.143 107.955C553.654 105.261 554.409 101.91 554.409 97.9017C554.409 93.959 553.654 90.6406 552.143 87.9464C550.698 85.1865 548.76 83.1495 546.329 81.8352C543.899 80.521 541.238 79.8639 538.348 79.8639Z" fill="#1A1A1A"/>
<path d="M631.273 70.7957V125.106H619.942V113.278C618.562 117.287 616.164 120.408 612.748 122.642C609.333 124.81 605.358 125.895 600.826 125.895C594.519 125.895 589.461 123.858 585.651 119.784C581.841 115.709 579.936 109.894 579.936 102.337V70.7957H591.169V101.154C591.169 106.083 592.417 109.894 594.913 112.588C597.41 115.217 600.826 116.531 605.161 116.531C609.628 116.531 613.208 115.085 615.902 112.194C618.595 109.303 619.942 105.097 619.942 99.5773V70.7957H631.273Z" fill="#1A1A1A"/>
<path d="M667.041 70.1058C673.413 70.1058 678.504 71.7485 682.314 75.0341C686.19 78.254 688.555 82.5909 689.409 88.045H678.767C678.307 85.0879 677.026 82.7223 674.924 80.9481C672.887 79.1082 670.161 78.1883 666.745 78.1883C663.92 78.1883 661.72 78.8782 660.143 80.2582C658.632 81.5724 657.877 83.3795 657.877 85.6794C657.877 87.3878 658.435 88.7678 659.552 89.8192C660.669 90.8706 662.048 91.6919 663.691 92.2833C665.399 92.8747 667.796 93.5319 670.884 94.2547C674.957 95.1746 678.241 96.1275 680.737 97.1131C683.299 98.0988 685.467 99.6759 687.241 101.844C689.08 103.947 690 106.838 690 110.518C690 115.052 688.259 118.732 684.777 121.558C681.362 124.383 676.73 125.796 670.884 125.796C664.118 125.796 658.632 124.219 654.428 121.065C650.29 117.911 647.793 113.508 646.939 107.857H657.877C658.205 110.814 659.519 113.212 661.818 115.052C664.118 116.892 667.139 117.812 670.884 117.812C673.577 117.812 675.679 117.122 677.19 115.742C678.767 114.297 679.555 112.49 679.555 110.321C679.555 108.415 678.964 106.904 677.781 105.787C676.599 104.67 675.121 103.816 673.347 103.224C671.574 102.567 669.143 101.91 666.055 101.253C662.114 100.333 658.895 99.413 656.399 98.4931C653.968 97.5731 651.866 96.0946 650.093 94.0575C648.385 91.9548 647.531 89.1292 647.531 85.5808C647.531 80.981 649.239 77.2683 652.654 74.4427C656.136 71.5514 660.932 70.1058 667.041 70.1058Z" fill="#1A1A1A"/>
<path fill-rule="evenodd" clip-rule="evenodd" d="M184 0H0V81.1765C0 121.913 25.1325 158.431 63.1859 172.986L92 184L120.814 172.986C158.868 158.431 184 121.913 184 81.1765V0ZM129.882 64.9412C129.882 85.8589 112.922 102.824 92 102.824C71.0783 102.824 54.1176 85.8589 54.1176 64.9412C54.1176 44.0234 71.0783 27.0588 92 27.0588H129.882V64.9412ZM92 81.1765C100.967 81.1765 108.235 73.9044 108.235 64.9412C108.235 55.9779 100.967 48.7059 92 48.7059C83.0335 48.7059 75.7647 55.9779 75.7647 64.9412C75.7647 73.9044 83.0335 81.1765 92 81.1765ZM54.1176 135.294C54.1176 123.34 63.8095 113.647 75.7647 113.647H129.882C129.882 125.602 120.19 135.294 108.235 135.294H54.1176Z" fill="#F55533"/>
</svg>
